<mxfile host="65bd71144e">
    <diagram id="9QkJtEaG_IkiM6-xcyWF" name="Page-1">
        <mxGraphModel dx="890" dy="319" grid="1" gridSize="10" guides="1" tooltips="1" connect="1" arrows="1" fold="1" page="1" pageScale="1" pageWidth="827" pageHeight="1169" math="0" shadow="0">
            <root>
                <mxCell id="0"/>
                <mxCell id="1" parent="0"/>
                <mxCell id="3" value="" style="edgeStyle=none;html=1;fontSize=13;rounded=0;" edge="1" parent="1" source="4" target="6">
                    <mxGeometry relative="1" as="geometry"/>
                </mxCell>
                <mxCell id="4" value="start" style="ellipse;whiteSpace=wrap;html=1;rounded=0;" vertex="1" parent="1">
                    <mxGeometry x="589" y="511" width="120" height="50" as="geometry"/>
                </mxCell>
                <mxCell id="5" value="" style="edgeStyle=none;html=1;fontColor=#FFFFFF;fontSize=13;rounded=0;" edge="1" parent="1" source="6" target="8">
                    <mxGeometry relative="1" as="geometry"/>
                </mxCell>
                <mxCell id="6" value="&lt;div style=&quot;background-color: rgb(40, 44, 52); font-family: consolas, &amp;quot;courier new&amp;quot;, monospace; font-size: 13px; line-height: 19px;&quot;&gt;&lt;font color=&quot;#ffffff&quot; style=&quot;font-size: 13px;&quot;&gt;value&lt;/font&gt;&lt;br style=&quot;font-size: 13px;&quot;&gt;&lt;/div&gt;" style="shape=parallelogram;perimeter=parallelogramPerimeter;whiteSpace=wrap;html=1;fixedSize=1;fontSize=13;rounded=0;" vertex="1" parent="1">
                    <mxGeometry x="588" y="590" width="124" height="40" as="geometry"/>
                </mxCell>
                <mxCell id="7" value="" style="edgeStyle=none;html=1;fontColor=#FFFFFF;fontSize=13;rounded=0;" edge="1" parent="1" source="8" target="10">
                    <mxGeometry relative="1" as="geometry"/>
                </mxCell>
                <mxCell id="8" value="array = &lt;span style=&quot;background-color: rgb(40 , 44 , 52) ; font-family: &amp;#34;consolas&amp;#34; , &amp;#34;courier new&amp;#34; , monospace ; font-size: 14px&quot;&gt;count&amp;nbsp;&lt;/span&gt;&lt;span&gt;value&lt;/span&gt;" style="whiteSpace=wrap;html=1;fontSize=13;rounded=0;" vertex="1" parent="1">
                    <mxGeometry x="582" y="660" width="132" height="50" as="geometry"/>
                </mxCell>
                <mxCell id="9" style="edgeStyle=none;html=1;fontSize=13;fontColor=#FFFFFF;rounded=0;entryX=0.5;entryY=0;entryDx=0;entryDy=0;" edge="1" parent="1" source="10" target="44">
                    <mxGeometry relative="1" as="geometry">
                        <mxPoint x="646" y="806" as="targetPoint"/>
                    </mxGeometry>
                </mxCell>
                <mxCell id="10" value="size =&amp;nbsp;array.Length &lt;br&gt;index = 0" style="shape=parallelogram;perimeter=parallelogramPerimeter;fixedSize=1;fontSize=13;whiteSpace=wrap;verticalAlign=middle;html=1;rounded=0;size=-2;" vertex="1" parent="1">
                    <mxGeometry x="517" y="740" width="266" height="47" as="geometry"/>
                </mxCell>
                <mxCell id="11" value="No" style="edgeStyle=none;html=1;fontColor=#FFFFFF;fontSize=13;rounded=0;" edge="1" parent="1" source="14">
                    <mxGeometry relative="1" as="geometry">
                        <mxPoint x="486" y="1136.97" as="targetPoint"/>
                    </mxGeometry>
                </mxCell>
                <mxCell id="12" value="Yes" style="edgeStyle=none;html=1;fontColor=#FFFFFF;fontSize=13;rounded=0;" edge="1" parent="1" source="14" target="16">
                    <mxGeometry relative="1" as="geometry"/>
                </mxCell>
                <mxCell id="13" style="edgeStyle=none;html=1;fontSize=13;fontColor=#FFFFFF;rounded=0;" edge="1" parent="1" source="14" target="16">
                    <mxGeometry relative="1" as="geometry"/>
                </mxCell>
                <mxCell id="14" value="&lt;span style=&quot;color: rgb(255 , 255 , 255) ; font-family: &amp;#34;consolas&amp;#34; , &amp;#34;courier new&amp;#34; , monospace ; background-color: rgb(40 , 44 , 52)&quot;&gt;index&amp;nbsp;&lt;/span&gt;&lt;span style=&quot;color: rgb(255 , 255 , 255) ; background-color: rgb(40 , 44 , 52) ; font-family: &amp;#34;consolas&amp;#34; , &amp;#34;courier new&amp;#34; , monospace&quot;&gt;&amp;lt; size&lt;/span&gt;&lt;span style=&quot;color: rgb(255 , 255 , 255) ; font-family: &amp;#34;consolas&amp;#34; , &amp;#34;courier new&amp;#34; , monospace ; background-color: rgb(40 , 44 , 52)&quot;&gt;&lt;br&gt;&lt;/span&gt;" style="rhombus;whiteSpace=wrap;html=1;fontSize=13;rounded=0;" vertex="1" parent="1">
                    <mxGeometry x="552" y="1106.97" width="204" height="60" as="geometry"/>
                </mxCell>
                <mxCell id="15" value="" style="edgeStyle=none;html=1;fontColor=#FFFFFF;fontSize=13;rounded=0;" edge="1" parent="1" source="16" target="20">
                    <mxGeometry relative="1" as="geometry"/>
                </mxCell>
                <mxCell id="16" value="&lt;div style=&quot;background-color: rgb(40, 44, 52); font-family: consolas, &amp;quot;courier new&amp;quot;, monospace; font-size: 13px; line-height: 19px;&quot;&gt;&lt;font color=&quot;#ffffff&quot; style=&quot;font-size: 13px;&quot;&gt;elements[i] % 2 == 0&lt;/font&gt;&lt;/div&gt;" style="whiteSpace=wrap;html=1;fontSize=13;rounded=0;" vertex="1" parent="1">
                    <mxGeometry x="830" y="1106.97" width="190" height="50" as="geometry"/>
                </mxCell>
                <mxCell id="17" value="" style="edgeStyle=none;html=1;fontSize=13;fontColor=#F0F0F0;rounded=0;" edge="1" parent="1" source="18" target="24">
                    <mxGeometry relative="1" as="geometry"/>
                </mxCell>
                <mxCell id="18" value="&lt;div style=&quot;background-color: rgb(40 , 44 , 52) ; font-family: &amp;#34;consolas&amp;#34; , &amp;#34;courier new&amp;#34; , monospace ; font-size: 14px ; line-height: 19px&quot;&gt;collectionElements&lt;br&gt;&lt;div style=&quot;font-family: &amp;#34;consolas&amp;#34; , &amp;#34;courier new&amp;#34; , monospace ; line-height: 19px&quot;&gt;evenCounts&lt;/div&gt;&lt;/div&gt;" style="whiteSpace=wrap;html=1;fontSize=13;strokeColor=#F0F0F0;rounded=0;" vertex="1" parent="1">
                    <mxGeometry x="316" y="1111.97" width="170" height="50" as="geometry"/>
                </mxCell>
                <mxCell id="19" value="" style="edgeStyle=none;html=1;fontSize=13;fontColor=#FFFFFF;rounded=0;" edge="1" parent="1" source="20" target="22">
                    <mxGeometry relative="1" as="geometry"/>
                </mxCell>
                <mxCell id="20" value="&lt;span style=&quot;color: rgb(255 , 255 , 255) ; font-family: &amp;#34;consolas&amp;#34; , &amp;#34;courier new&amp;#34; , monospace ; background-color: rgb(40 , 44 , 52)&quot;&gt;evenNumber =&amp;nbsp;&lt;/span&gt;&lt;span style=&quot;color: rgb(255 , 255 , 255) ; font-family: &amp;#34;consolas&amp;#34; , &amp;#34;courier new&amp;#34; , monospace ; background-color: rgb(40 , 44 , 52)&quot;&gt;elements[i]&lt;/span&gt;" style="whiteSpace=wrap;html=1;fontSize=13;rounded=0;" vertex="1" parent="1">
                    <mxGeometry x="830" y="1191.97" width="190" height="45" as="geometry"/>
                </mxCell>
                <mxCell id="21" style="edgeStyle=none;html=1;fontSize=13;fontColor=#FFFFFF;rounded=0;" edge="1" parent="1" source="22" target="14">
                    <mxGeometry relative="1" as="geometry"/>
                </mxCell>
                <mxCell id="22" value="&lt;span style=&quot;color: rgb(255 , 255 , 255) ; font-family: &amp;#34;consolas&amp;#34; , &amp;#34;courier new&amp;#34; , monospace ; background-color: rgb(40 , 44 , 52)&quot;&gt;index&amp;nbsp;&lt;/span&gt;=&amp;nbsp;&lt;span style=&quot;color: rgb(255 , 255 , 255) ; font-family: &amp;#34;consolas&amp;#34; , &amp;#34;courier new&amp;#34; , monospace ; background-color: rgb(40 , 44 , 52)&quot;&gt;index&lt;/span&gt;&amp;nbsp;+ 1" style="whiteSpace=wrap;html=1;fontSize=13;rounded=0;" vertex="1" parent="1">
                    <mxGeometry x="586" y="1194.47" width="136" height="42.5" as="geometry"/>
                </mxCell>
                <mxCell id="23" value="" style="edgeStyle=none;html=1;fontSize=13;fontColor=#F0F0F0;exitX=0.5;exitY=1;exitDx=0;exitDy=0;rounded=0;" edge="1" parent="1" source="24" target="27">
                    <mxGeometry relative="1" as="geometry">
                        <mxPoint x="401" y="1261.97" as="sourcePoint"/>
                    </mxGeometry>
                </mxCell>
                <mxCell id="24" value="&lt;div style=&quot;background-color: rgb(40 , 44 , 52) ; font-family: &amp;#34;consolas&amp;#34; , &amp;#34;courier new&amp;#34; , monospace ; font-size: 14px ; line-height: 19px&quot;&gt;&lt;span&gt;length&lt;/span&gt; = &lt;span&gt;collectionElements&lt;/span&gt;.&lt;span&gt;Length&lt;br&gt;&lt;/span&gt;&lt;div style=&quot;font-family: &amp;#34;consolas&amp;#34; , &amp;#34;courier new&amp;#34; , monospace ; line-height: 19px&quot;&gt;&lt;span&gt;position&lt;/span&gt; = &lt;span&gt;0&lt;br&gt;index (E&lt;/span&gt;venCounts) = 0&lt;/div&gt;&lt;/div&gt;" style="whiteSpace=wrap;html=1;fontSize=13;fontColor=#F0F0F0;rounded=0;" vertex="1" parent="1">
                    <mxGeometry x="246" y="1184.47" width="310" height="62.5" as="geometry"/>
                </mxCell>
                <mxCell id="25" value="Yes" style="edgeStyle=none;html=1;fontSize=13;fontColor=#F0F0F0;rounded=0;" edge="1" parent="1" source="27" target="30">
                    <mxGeometry relative="1" as="geometry"/>
                </mxCell>
                <mxCell id="26" value="No" style="edgeStyle=none;html=1;fontSize=13;fontColor=#F0F0F0;rounded=0;" edge="1" parent="1" source="27" target="32">
                    <mxGeometry relative="1" as="geometry"/>
                </mxCell>
                <mxCell id="27" value="&lt;div style=&quot;background-color: rgb(40, 44, 52); font-family: consolas, &amp;quot;courier new&amp;quot;, monospace; font-size: 14px; line-height: 19px;&quot;&gt;&lt;span style=&quot;&quot;&gt;position&lt;/span&gt; &amp;lt; &lt;span style=&quot;&quot;&gt;length&lt;/span&gt;&lt;/div&gt;" style="rhombus;whiteSpace=wrap;html=1;fontSize=13;fontColor=#F0F0F0;rounded=0;" vertex="1" parent="1">
                    <mxGeometry x="296" y="1276.97" width="210" height="65" as="geometry"/>
                </mxCell>
                <mxCell id="28" value="Yes" style="edgeStyle=none;html=1;fontSize=13;fontColor=#F0F0F0;rounded=0;" edge="1" parent="1" source="30" target="34">
                    <mxGeometry relative="1" as="geometry"/>
                </mxCell>
                <mxCell id="29" value="No" style="edgeStyle=none;html=1;" edge="1" parent="1" source="30" target="36">
                    <mxGeometry x="-0.8983" relative="1" as="geometry">
                        <Array as="points">
                            <mxPoint x="595" y="1422"/>
                            <mxPoint x="601" y="1667"/>
                        </Array>
                        <mxPoint as="offset"/>
                    </mxGeometry>
                </mxCell>
                <mxCell id="30" value="&lt;div style=&quot;background-color: rgb(40 , 44 , 52) ; font-family: &amp;#34;consolas&amp;#34; , &amp;#34;courier new&amp;#34; , monospace ; font-size: 14px ; line-height: 19px&quot;&gt;&lt;span&gt;collectionElements&lt;br&gt;&lt;/span&gt;[&lt;span&gt;position&lt;/span&gt;] % &lt;span&gt;2&lt;/span&gt; == &lt;span&gt;0&lt;/span&gt;&lt;/div&gt;" style="rhombus;whiteSpace=wrap;html=1;fontSize=13;fontColor=#F0F0F0;rounded=0;" vertex="1" parent="1">
                    <mxGeometry x="256" y="1381.97" width="290" height="80" as="geometry"/>
                </mxCell>
                <mxCell id="31" value="" style="edgeStyle=none;html=1;" edge="1" parent="1" source="32" target="54">
                    <mxGeometry relative="1" as="geometry"/>
                </mxCell>
                <mxCell id="32" value="&lt;div style=&quot;background-color: rgb(40, 44, 52); font-family: consolas, &amp;quot;courier new&amp;quot;, monospace; font-size: 14px; line-height: 19px;&quot;&gt;&lt;span style=&quot;&quot;&gt;evenCounts&lt;/span&gt;&lt;/div&gt;" style="whiteSpace=wrap;html=1;fontSize=13;fontColor=#F0F0F0;rounded=0;" vertex="1" parent="1">
                    <mxGeometry x="600" y="1281.97" width="120" height="60" as="geometry"/>
                </mxCell>
                <mxCell id="33" value="" style="edgeStyle=none;html=1;fontSize=13;fontColor=#F0F0F0;rounded=0;" edge="1" parent="1" source="34" target="38">
                    <mxGeometry relative="1" as="geometry"/>
                </mxCell>
                <mxCell id="34" value="&lt;div style=&quot;background-color: rgb(40 , 44 , 52) ; font-family: &amp;#34;consolas&amp;#34; , &amp;#34;courier new&amp;#34; , monospace ; font-size: 14px ; line-height: 19px&quot;&gt;&lt;span&gt;index =&amp;nbsp;&lt;/span&gt;&lt;/div&gt;&lt;span style=&quot;font-family: &amp;#34;consolas&amp;#34; , &amp;#34;courier new&amp;#34; , monospace ; font-size: 14px&quot;&gt;collectionElements&lt;/span&gt;&lt;span style=&quot;font-family: &amp;#34;consolas&amp;#34; , &amp;#34;courier new&amp;#34; , monospace ; font-size: 14px ; background-color: rgb(40 , 44 , 52)&quot;&gt;[&lt;/span&gt;&lt;span style=&quot;font-family: &amp;#34;consolas&amp;#34; , &amp;#34;courier new&amp;#34; , monospace ; font-size: 14px&quot;&gt;position&lt;/span&gt;&lt;span style=&quot;font-family: &amp;#34;consolas&amp;#34; , &amp;#34;courier new&amp;#34; , monospace ; font-size: 14px ; background-color: rgb(40 , 44 , 52)&quot;&gt;]&lt;/span&gt;" style="whiteSpace=wrap;html=1;fontSize=13;fontColor=#F0F0F0;rounded=0;" vertex="1" parent="1">
                    <mxGeometry x="276" y="1491.97" width="250" height="60" as="geometry"/>
                </mxCell>
                <mxCell id="35" style="edgeStyle=none;html=1;fontSize=13;fontColor=#F0F0F0;rounded=0;" edge="1" parent="1" source="36" target="27">
                    <mxGeometry relative="1" as="geometry">
                        <Array as="points">
                            <mxPoint x="166" y="1673"/>
                            <mxPoint x="166" y="1516.97"/>
                            <mxPoint x="166" y="1309.97"/>
                        </Array>
                    </mxGeometry>
                </mxCell>
                <mxCell id="36" value="&lt;div style=&quot;background-color: rgb(40, 44, 52); font-family: consolas, &amp;quot;courier new&amp;quot;, monospace; font-size: 14px; line-height: 19px;&quot;&gt;&lt;span style=&quot;&quot;&gt;position =&amp;nbsp;&lt;/span&gt;&lt;span style=&quot;&quot;&gt;position + 1&lt;/span&gt;&lt;/div&gt;" style="whiteSpace=wrap;html=1;fontSize=13;fontColor=#F0F0F0;rounded=0;" vertex="1" parent="1">
                    <mxGeometry x="341" y="1649" width="120" height="47" as="geometry"/>
                </mxCell>
                <mxCell id="37" style="edgeStyle=none;html=1;" edge="1" parent="1" source="38" target="36">
                    <mxGeometry relative="1" as="geometry"/>
                </mxCell>
                <mxCell id="38" value="index = index&amp;nbsp; +1&amp;nbsp;" style="whiteSpace=wrap;html=1;fontSize=13;fontColor=#F0F0F0;rounded=0;" vertex="1" parent="1">
                    <mxGeometry x="341" y="1581" width="120" height="39.03" as="geometry"/>
                </mxCell>
                <mxCell id="39" value="" style="edgeStyle=none;html=1;fontSize=13;fontColor=#F0F0F0;rounded=0;" edge="1" parent="1" target="41">
                    <mxGeometry relative="1" as="geometry">
                        <mxPoint x="950" y="1633" as="sourcePoint"/>
                    </mxGeometry>
                </mxCell>
                <mxCell id="40" value="newArray(&lt;span style=&quot;font-family: &amp;#34;consolas&amp;#34; , &amp;#34;courier new&amp;#34; , monospace ; font-size: 14px ; background-color: rgb(40 , 44 , 52)&quot;&gt;evenCounts)&lt;/span&gt;" style="shape=document;whiteSpace=wrap;html=1;boundedLbl=1;labelBackgroundColor=none;fontSize=13;fontColor=#F0F0F0;rounded=0;" vertex="1" parent="1">
                    <mxGeometry x="826.5" y="1593" width="172" height="65" as="geometry"/>
                </mxCell>
                <mxCell id="41" value="end" style="ellipse;whiteSpace=wrap;html=1;fontSize=13;fontColor=#F0F0F0;labelBackgroundColor=none;rounded=0;" vertex="1" parent="1">
                    <mxGeometry x="890" y="1673" width="120" height="60" as="geometry"/>
                </mxCell>
                <mxCell id="42" value="No" style="edgeStyle=none;html=1;fontColor=#F0F0F0;rounded=0;" edge="1" parent="1" source="44" target="48">
                    <mxGeometry relative="1" as="geometry"/>
                </mxCell>
                <mxCell id="43" value="Yes" style="edgeStyle=none;html=1;" edge="1" parent="1" source="44" target="50">
                    <mxGeometry relative="1" as="geometry"/>
                </mxCell>
                <mxCell id="44" value="index&amp;nbsp; &amp;lt;&amp;nbsp;&lt;span style=&quot;font-family: &amp;#34;consolas&amp;#34; , &amp;#34;courier new&amp;#34; , monospace ; font-size: 14px&quot;&gt;size&amp;nbsp;&lt;/span&gt;" style="rhombus;whiteSpace=wrap;html=1;fontSize=13;fontColor=#FFFFFF;rounded=0;labelBackgroundColor=none;" vertex="1" parent="1">
                    <mxGeometry x="580" y="812" width="140" height="80" as="geometry"/>
                </mxCell>
                <mxCell id="45" style="edgeStyle=none;html=1;fontColor=#F0F0F0;rounded=0;" edge="1" parent="1" source="46" target="14">
                    <mxGeometry relative="1" as="geometry"/>
                </mxCell>
                <mxCell id="46" value="&lt;span style=&quot;color: rgb(255 , 255 , 255) ; font-family: &amp;#34;consolas&amp;#34; , &amp;#34;courier new&amp;#34; , monospace ; font-size: 13px&quot;&gt;size =&amp;nbsp;&lt;/span&gt;&lt;span style=&quot;color: rgb(255 , 255 , 255) ; font-family: &amp;#34;consolas&amp;#34; , &amp;#34;courier new&amp;#34; , monospace ; font-size: 14px&quot;&gt;elementsLength&lt;/span&gt;&lt;span style=&quot;color: rgb(255 , 255 , 255) ; font-family: &amp;#34;consolas&amp;#34; , &amp;#34;courier new&amp;#34; , monospace ; font-size: 13px&quot;&gt;&lt;br&gt;evenNumber = 0&lt;br&gt;index = 0&lt;br&gt;&lt;/span&gt;" style="rounded=0;whiteSpace=wrap;html=1;fontColor=#F0F0F0;" vertex="1" parent="1">
                    <mxGeometry x="559" y="1030" width="190" height="50" as="geometry"/>
                </mxCell>
                <mxCell id="47" value="" style="edgeStyle=none;html=1;" edge="1" parent="1" source="48" target="52">
                    <mxGeometry relative="1" as="geometry"/>
                </mxCell>
                <mxCell id="48" value="&lt;span&gt;index&amp;nbsp; =&amp;nbsp;&lt;/span&gt;index&amp;nbsp;&amp;nbsp;+1" style="whiteSpace=wrap;html=1;fontSize=13;fontColor=#FFFFFF;rounded=0;labelBackgroundColor=none;" vertex="1" parent="1">
                    <mxGeometry x="592" y="920" width="120" height="30" as="geometry"/>
                </mxCell>
                <mxCell id="49" style="edgeStyle=none;html=1;entryX=1;entryY=0.5;entryDx=0;entryDy=0;" edge="1" parent="1" source="50" target="48">
                    <mxGeometry relative="1" as="geometry">
                        <Array as="points">
                            <mxPoint x="834" y="935"/>
                        </Array>
                    </mxGeometry>
                </mxCell>
                <mxCell id="50" value="array =&amp;nbsp;&lt;span style=&quot;color: rgb(240 , 240 , 240) ; font-family: &amp;#34;consolas&amp;#34; , &amp;#34;courier new&amp;#34; , monospace ; font-size: 14px ; background-color: rgb(40 , 44 , 52)&quot;&gt;count&amp;nbsp;&lt;/span&gt;&lt;br&gt;&lt;span style=&quot;font-family: &amp;#34;consolas&amp;#34; , &amp;#34;courier new&amp;#34; , monospace ; font-size: 14px&quot;&gt;elements&lt;/span&gt;" style="whiteSpace=wrap;html=1;fontSize=13;fontColor=#FFFFFF;rounded=0;labelBackgroundColor=none;" vertex="1" parent="1">
                    <mxGeometry x="774" y="822" width="120" height="60" as="geometry"/>
                </mxCell>
                <mxCell id="51" value="" style="edgeStyle=none;html=1;" edge="1" parent="1" source="52" target="46">
                    <mxGeometry relative="1" as="geometry"/>
                </mxCell>
                <mxCell id="52" value="&lt;span style=&quot;font-family: &amp;#34;consolas&amp;#34; , &amp;#34;courier new&amp;#34; , monospace&quot;&gt;array&amp;nbsp;&lt;/span&gt;&lt;span style=&quot;font-family: &amp;#34;consolas&amp;#34; , &amp;#34;courier new&amp;#34; , monospace ; font-size: 14px&quot;&gt;elements&lt;/span&gt;" style="whiteSpace=wrap;html=1;fontSize=13;fontColor=#FFFFFF;rounded=0;labelBackgroundColor=none;" vertex="1" parent="1">
                    <mxGeometry x="594" y="980" width="120" height="30" as="geometry"/>
                </mxCell>
                <mxCell id="53" value="" style="edgeStyle=none;html=1;fontColor=#F0F0F0;" edge="1" parent="1" source="54" target="57">
                    <mxGeometry relative="1" as="geometry"/>
                </mxCell>
                <mxCell id="54" value="&lt;div style=&quot;background-color: rgb(40 , 44 , 52) ; font-family: &amp;#34;consolas&amp;#34; , &amp;#34;courier new&amp;#34; , monospace ; font-size: 14px ; line-height: 19px&quot;&gt;&lt;div&gt;&lt;span style=&quot;font-family: &amp;#34;helvetica&amp;#34; ; font-size: 13px ; background-color: rgb(42 , 42 , 42)&quot;&gt;newArray(&lt;/span&gt;evenCounts)=result&amp;nbsp;&lt;br&gt;size = numbers.Length;&lt;/div&gt;&lt;div&gt;&amp;nbsp; i = 0&lt;/div&gt;&lt;/div&gt;" style="whiteSpace=wrap;html=1;fontSize=13;fontColor=#F0F0F0;rounded=0;" vertex="1" parent="1">
                    <mxGeometry x="798.25" y="1281.97" width="240" height="60" as="geometry"/>
                </mxCell>
                <mxCell id="55" value="Yes" style="edgeStyle=none;html=1;fontColor=#F0F0F0;" edge="1" parent="1" source="57" target="59">
                    <mxGeometry relative="1" as="geometry"/>
                </mxCell>
                <mxCell id="56" value="No" style="edgeStyle=none;html=1;fontColor=#F0F0F0;" edge="1" parent="1" source="57" target="40">
                    <mxGeometry x="-0.8928" relative="1" as="geometry">
                        <Array as="points">
                            <mxPoint x="1060" y="1401"/>
                            <mxPoint x="1060" y="1626"/>
                        </Array>
                        <mxPoint as="offset"/>
                    </mxGeometry>
                </mxCell>
                <mxCell id="57" value="i &amp;lt;&amp;nbsp;&lt;span style=&quot;font-family: &amp;#34;consolas&amp;#34; , &amp;#34;courier new&amp;#34; , monospace ; font-size: 14px ; background-color: rgb(40 , 44 , 52)&quot;&gt;size&lt;/span&gt;" style="rhombus;whiteSpace=wrap;html=1;fontSize=13;fontColor=#F0F0F0;rounded=0;" vertex="1" parent="1">
                    <mxGeometry x="843" y="1371.97" width="147" height="58.03" as="geometry"/>
                </mxCell>
                <mxCell id="58" value="" style="edgeStyle=none;html=1;fontColor=#F0F0F0;" edge="1" parent="1" source="59" target="61">
                    <mxGeometry relative="1" as="geometry"/>
                </mxCell>
                <mxCell id="59" value="&lt;span style=&quot;font-family: &amp;#34;consolas&amp;#34; , &amp;#34;courier new&amp;#34; , monospace ; font-size: 14px ; background-color: rgb(40 , 44 , 52)&quot;&gt;result + numbers [i]&lt;/span&gt;" style="whiteSpace=wrap;html=1;fontSize=13;fontColor=#F0F0F0;rounded=0;" vertex="1" parent="1">
                    <mxGeometry x="824.75" y="1461.97" width="183.5" height="39.99" as="geometry"/>
                </mxCell>
                <mxCell id="60" style="edgeStyle=none;html=1;entryX=0;entryY=0.5;entryDx=0;entryDy=0;fontColor=#F0F0F0;" edge="1" parent="1" source="61" target="57">
                    <mxGeometry relative="1" as="geometry">
                        <Array as="points">
                            <mxPoint x="780" y="1545"/>
                            <mxPoint x="780" y="1401"/>
                        </Array>
                    </mxGeometry>
                </mxCell>
                <mxCell id="61" value="i = i + 1" style="whiteSpace=wrap;html=1;fontSize=13;fontColor=#F0F0F0;rounded=0;" vertex="1" parent="1">
                    <mxGeometry x="856.5" y="1528.93" width="120" height="33.03" as="geometry"/>
                </mxCell>
            </root>
        </mxGraphModel>
    </diagram>
    <diagram name="Page-1" id="Q9DaQgcbfLEyy2spYf2s">
        <mxGraphModel grid="1" gridSize="10" guides="1" tooltips="1" connect="1" arrows="1" page="1" fold="1" pageScale="1" pageWidth="827" pageHeight="1169" math="0" shadow="0">
            <root>
                <mxCell id="0"/>
                <mxCell id="1" parent="0"/>
                <mxCell id="2" value="" style="ellipse;whiteSpace=wrap;html=1;" vertex="1" parent="1">
                    <mxGeometry x="110" y="200" width="120" height="80" as="geometry"/>
                </mxCell>
            </root>
        </mxGraphModel>
    </diagram>
</mxfile>